<svg width="114" height="29" viewBox="0 0 114 29" fill="none" xmlns="http://www.w3.org/2000/svg">
<path d="M5.25731 0.0196459C4.62858 0.0982367 4.13739 0.255419 3.56761 0.530487C2.64416 1.00203 1.93685 1.70935 1.4653 2.63279C1.22953 3.10434 1.11164 3.39905 1.01341 3.89024C0.934814 4.22426 0.934814 4.7351 0.934814 14.5C0.934814 24.2649 0.934814 24.7757 1.01341 25.1098C1.11164 25.601 1.22953 25.8957 1.4653 26.3672C1.93685 27.2907 2.64416 27.998 3.56761 28.4695C4.03915 28.7053 4.33387 28.8232 4.82506 28.9214C5.15907 29 5.66991 29 15.4348 29C25.1997 29 25.7106 29 26.0446 28.9214C26.5358 28.8232 26.8305 28.7053 27.302 28.4695C28.2255 27.998 28.9328 27.2907 29.4043 26.3672C29.6401 25.8957 29.758 25.601 29.8562 25.1098C29.9348 24.7757 29.9348 24.2649 29.9348 14.5C29.9348 4.7351 29.9348 4.22426 29.8562 3.89024C29.758 3.39905 29.6401 3.10434 29.4043 2.63279C28.7363 1.33605 27.5771 0.451896 26.1035 0.0785896C25.8088 -1.20037e-06 25.2783 0 15.592 0C9.97275 0 5.3359 0.0196459 5.25731 0.0196459ZM18.323 6.3855C20.2878 6.75881 21.447 7.64296 21.8793 9.11653C22.0954 9.86315 22.115 10.9045 21.9186 11.6118C21.84 11.9262 21.5845 12.4566 21.4077 12.7121C21.0737 13.1836 20.5039 13.6551 19.9145 13.9499C19.777 14.0285 19.6591 14.0874 19.6591 14.107C19.6591 14.1267 19.7573 14.166 19.8752 14.1856C19.9931 14.2053 20.2289 14.2839 20.4057 14.3625C21.9382 14.9715 22.8223 16.4451 22.8223 18.4688C22.8223 19.6477 22.449 20.7087 21.7614 21.4356C20.9755 22.2805 19.8948 22.7913 18.3034 23.086C17.9497 23.145 17.4389 23.1646 13.3718 23.1646L8.81354 23.1843V6.26762L13.4111 6.28726C17.3603 6.32656 18.0283 6.32656 18.323 6.3855ZM11.7803 11.042V13.3801L14.4917 13.3604C16.8691 13.3408 17.2228 13.3408 17.4192 13.2818C18.0676 13.0854 18.6177 12.6728 18.8535 12.1619C19.0303 11.7886 19.0893 11.5332 19.0893 10.9831C19.0893 9.94174 18.7749 9.33266 18.0873 8.99865C17.4978 8.72358 17.4978 8.72358 14.5114 8.70393L11.7803 8.68428V11.042ZM11.7803 18.1545V20.8069L14.7275 20.7873C17.6157 20.7676 17.6943 20.7676 18.0087 20.689C18.4802 20.5515 18.8142 20.3747 19.1286 20.0406C19.6394 19.5495 19.8162 18.9993 19.8162 18.1348C19.8162 17.2703 19.6001 16.7202 19.1089 16.229C18.7749 15.9146 18.4606 15.7575 17.9497 15.6199C17.6157 15.5413 17.5175 15.5217 14.6882 15.5217L11.7803 15.502V18.1545Z" fill="#444547"/>
<path d="M37.9348 7.03623C37.9914 7.01812 38.048 7 38.1046 7C40.2175 7 42.3115 7 44.4244 7.03623C45.1412 7.05435 45.8015 7.28985 46.3863 7.70652C47.7257 8.64855 47.8578 11.3116 46.009 12.2717C45.9147 12.3261 45.8204 12.3623 45.6883 12.4348C46.0467 12.5978 46.3863 12.7065 46.6693 12.8877C47.7823 13.6123 48.2351 15.2246 47.7257 16.6377C47.2918 17.8696 46.2543 18.3949 45.0658 18.6667C44.6696 18.7572 44.2546 18.7935 43.8584 18.8116C41.8965 18.8297 39.9156 18.8116 37.9348 18.8116C37.9348 14.8986 37.9348 10.9674 37.9348 7.03623ZM40.0288 17.0906C41.5003 17.0906 42.9152 17.1268 44.33 17.0725C45.2167 17.0362 45.8581 16.1123 45.8204 15.2065C45.7638 14.3007 45.1978 13.5399 44.33 13.5036C42.9152 13.4312 41.5192 13.4493 40.1043 13.4493C40.0854 13.4493 40.0666 13.4855 40.0288 13.5036V17.0906ZM40.0477 11.9094C41.3494 11.9094 42.6133 11.9638 43.8773 11.8913C44.8017 11.837 45.3299 11.1304 45.2921 10.1341C45.2544 9.2645 44.7262 8.73913 43.7829 8.7029C42.5945 8.66667 41.406 8.68479 40.1986 8.68479C40.142 8.68479 40.1043 8.7029 40.0477 8.72101V11.9094ZM105.245 10.2971H106.999V11.221C107.188 11.0761 107.433 10.913 107.66 10.7319C108.999 9.6087 112.187 9.73551 113.281 12.0181C114.225 13.9746 114.187 15.9493 112.904 17.7609C112.206 18.7754 111.112 19.1377 109.886 19.0652C108.81 19.0109 107.867 18.6848 107.131 17.7065V22H105.245C105.245 18.087 105.245 14.192 105.245 10.2971ZM107.018 14.6087C107.094 15.0435 107.131 15.4783 107.263 15.8949C107.528 16.8188 108.358 17.5072 109.225 17.5797C110.376 17.6522 111.206 17.2355 111.621 16.2391C112.15 14.971 112.131 13.6848 111.357 12.5072C110.452 11.1123 108.263 11.221 107.49 12.6884C107.169 13.2862 107.018 13.9203 107.018 14.6087ZM104 17.5978C104 17.942 104.019 18.3043 104 18.6667C104 18.7572 103.887 18.9022 103.811 18.9022C103.264 18.9384 102.717 19.029 102.17 18.9746C101.698 18.9203 101.434 18.5217 101.283 18.0688C100.151 18.9746 98.8497 19.1558 97.4726 18.9928C96.3218 18.8478 95.3597 17.9239 95.2842 16.8913C95.1711 15.4783 95.7181 14.5543 97.0198 14.2101C97.9253 13.9746 98.8875 13.8841 99.8118 13.721C100.038 13.6848 100.265 13.6485 100.491 13.5942C100.925 13.4855 101.227 13.25 101.246 12.779C101.283 12.2899 101.076 11.9094 100.623 11.7283C99.8307 11.4203 99.0006 11.4203 98.2083 11.7826C97.8499 11.9457 97.6424 12.2717 97.4537 12.8515H95.605C95.605 12.163 95.8502 11.5833 96.3218 11.0942C96.9444 10.442 97.7556 10.1884 98.6233 10.1159C99.5289 10.0254 100.434 10.0254 101.321 10.3152C102.51 10.7138 103.075 11.4746 103.075 12.7065C103.075 14.0109 103.075 15.3152 103.075 16.6196C103.057 17.5254 103.057 17.5254 104 17.5978ZM101.132 14.663C100.548 14.7536 100.019 14.8442 99.4911 14.9529C98.944 15.0616 98.3781 15.1703 97.8499 15.3514C97.3405 15.5326 97.1519 16.0036 97.1707 16.5109C97.1896 17 97.5292 17.2717 97.9631 17.4167C98.7177 17.6703 99.4723 17.6341 100.17 17.308C100.68 17.0725 101.076 16.692 101.114 16.1123C101.17 15.6232 101.132 15.1341 101.132 14.663ZM53.5739 10.0435C56.4791 10.0072 58.1769 12.0906 57.9883 14.9167C57.9317 15.8949 57.6487 16.8188 56.9884 17.5978C56.2715 18.4312 55.366 18.8841 54.253 18.9928C53.3286 19.1014 52.442 19.029 51.593 18.6486C50.3291 18.087 49.5933 17.1087 49.2915 15.7862C49.084 14.8804 49.084 13.9928 49.3292 13.1051C49.8575 11.1667 51.4044 10.0616 53.5739 10.0435ZM51.0459 14.5725C51.1214 14.9891 51.1591 15.4058 51.2723 15.8225C51.5742 16.8551 52.4042 17.5254 53.3475 17.5797C54.5171 17.6341 55.3283 17.1449 55.781 16.0942C56.2149 15.0435 56.2149 13.9928 55.7433 12.9601C55.0453 11.4384 53.1777 11.0399 51.9703 12.1812C51.2723 12.7971 51.1025 13.6486 51.0459 14.5725ZM63.6289 10.0435C66.2511 10.0435 68.0244 11.7645 68.0621 14.337C68.081 15.4239 67.8923 16.4565 67.2509 17.3623C66.3266 18.6667 64.9871 19.1196 63.4402 19.0471C62.8743 19.029 62.2706 18.9022 61.7424 18.6848C60.4973 18.2138 59.7427 17.2536 59.422 16.0036C59.139 14.8986 59.1579 13.7935 59.5352 12.7065C60.0823 11.0399 61.648 10.0435 63.6289 10.0435ZM66.1379 14.337C66.1002 14.1014 66.0624 13.6667 65.9304 13.25C65.6097 12.1993 64.7608 11.5471 63.7043 11.5109C62.7045 11.4746 61.799 12.0362 61.4217 13.0507C60.9689 14.2464 61.0066 15.4239 61.6858 16.529C62.4026 17.6884 64.025 17.942 65.1003 17.0725C65.9115 16.4203 66.1002 15.5145 66.1379 14.337ZM82.3052 12.6703C81.7015 12.6703 81.1355 12.6703 80.5507 12.6703C80.4753 12.6703 80.3621 12.5978 80.3432 12.5435C80.0225 11.6558 79.249 11.5471 78.4567 11.5471C78.136 11.5471 77.7776 11.6196 77.4757 11.7464C76.8155 12.0181 76.7589 12.7428 77.3625 13.087C77.7776 13.3225 78.2869 13.4493 78.7586 13.5942C79.4377 13.7754 80.1357 13.9022 80.8148 14.0833C82.5315 14.5906 83.2107 16.2754 82.2486 17.6703C81.7958 18.3406 81.0978 18.7029 80.3055 18.8841C79.1359 19.1558 77.9662 19.1739 76.8343 18.7754C75.6081 18.3406 74.9667 17.471 74.8724 16.1667H76.74C77.2682 17.5254 78.7774 18.0507 80.1734 17.3623C80.4941 17.1993 80.7205 16.9819 80.7394 16.6014C80.7582 16.2029 80.6073 15.8587 80.23 15.7138C79.5697 15.4783 78.8906 15.3152 78.2115 15.1159C77.6455 14.9529 77.0796 14.8442 76.5514 14.6268C75.5138 14.2283 75.061 13.5399 75.061 12.471C75.061 11.5471 75.6081 10.7681 76.5891 10.4239C77.9285 9.9529 79.3056 9.88044 80.6451 10.4058C81.5506 10.75 82.0976 11.4384 82.324 12.3623C82.324 12.4348 82.3052 12.5254 82.3052 12.6703ZM72.1747 10.2609H73.9103V11.6377H72.2124C72.1936 11.8007 72.1936 11.9275 72.1936 12.0362C72.1936 13.4312 72.1936 14.8261 72.1936 16.221C72.1936 16.4022 72.2124 16.6014 72.2313 16.7826C72.269 17.1449 72.4765 17.3623 72.8538 17.3985C73.1934 17.4167 73.5518 17.3985 73.9291 17.3985V18.7754C73.1368 18.9746 72.3445 18.9565 71.571 18.7935C70.6655 18.5942 70.3071 17.9783 70.2882 16.837C70.2693 15.2609 70.2882 13.7029 70.2882 12.1268V11.6739H68.8545V10.279H70.2693V7.72464H72.2124C72.1747 8.55797 72.1747 9.3913 72.1747 10.2609ZM88.3231 18.8478C87.5873 18.8478 86.8705 18.8659 86.1725 18.8478C85.4933 18.8116 84.9651 18.3768 84.8142 17.7246C84.7387 17.3442 84.6821 16.9638 84.6821 16.5833C84.6633 15.1159 84.6821 13.6304 84.6821 12.163V11.692H83.2484V10.3152H84.6633V7.74275H86.6064V10.279H88.3231V11.6739H86.6818C86.663 11.8007 86.6441 11.8913 86.6441 11.9638C86.6441 13.4674 86.6441 14.971 86.6441 16.4746C86.6441 17.2717 86.8705 17.4529 87.6628 17.4529C87.8703 17.4529 88.0967 17.4529 88.3419 17.4529L88.3231 18.8478ZM91.549 10.2971V11.7464C92.2847 10.5145 93.3223 9.86232 94.8504 10.0797V11.8732C94.1335 11.7645 93.4355 11.7464 92.8129 12.1812C92.0018 12.7428 91.7188 13.5942 91.6999 14.5C91.6622 15.913 91.6999 17.3442 91.6999 18.7935H89.7946V10.279C90.3605 10.2971 90.9264 10.2971 91.549 10.2971Z" fill="#444547"/>
</svg>
