<svg width="31" height="35" viewBox="0 0 31 35" fill="none" xmlns="http://www.w3.org/2000/svg">
<path d="M22.6035 16.7222H23.5389L23.4173 17.9073H22.4852L22.6035 16.7222ZM30.5 10.0738V24.9204C30.4682 25.858 30.0086 26.6962 29.201 27.2531L16.799 34.6764C16.0846 35.1041 14.9154 35.1041 14.201 34.6764L1.79902 27.2531C1.04633 26.7415 0.555582 25.9165 0.5 24.9204V10.0738C0.5 9.21852 1.08451 8.16877 1.79902 7.74116L14.201 0.317907C14.9154 -0.109794 16.0846 -0.109794 16.799 0.317907L29.201 7.74116C29.9512 8.26622 30.471 9.17389 30.5 10.0738ZM24.1602 22.6837L19.8324 20.0875C16.9456 24.8785 10.5699 22.5373 10.5 17.4972C10.7328 12.0285 17.2196 10.4267 19.8322 14.9066L24.1599 12.3102C18.5198 2.90389 5.44124 7.37392 5.5 17.4972C5.75067 28.4109 19.1897 31.6294 24.1602 22.6837ZM25.1934 15.897H24.4514L24.5851 14.5577H23.7609L23.6235 15.897H22.6859L22.8196 14.5577H21.9954L21.858 15.897H21.0723V16.7222H21.7734L21.6518 17.9073H20.8415V18.7325H21.5671L21.4168 20.1973H22.2565L22.4028 18.7325H23.3326L23.1823 20.1973H24.022L24.1683 18.7325H24.9626V17.9073H24.2507L24.369 16.7222H25.1934V15.897Z" fill="#444547"/>
</svg>
