<svg width="22" height="21" viewBox="0 0 22 21" fill="none" xmlns="http://www.w3.org/2000/svg">
<path d="M14.6663 1.75H7.33375C4.14875 1.75 2.25 3.64875 2.25 6.83375V14.1575C2.25 17.3513 4.14875 19.25 7.33375 19.25H14.6575C17.8425 19.25 19.7412 17.3513 19.7412 14.1663V6.83375C19.75 3.64875 17.8513 1.75 14.6663 1.75ZM11 13.895C9.1275 13.895 7.605 12.3725 7.605 10.5C7.605 8.6275 9.1275 7.105 11 7.105C12.8725 7.105 14.395 8.6275 14.395 10.5C14.395 12.3725 12.8725 13.895 11 13.895ZM16.18 6.02C16.1363 6.125 16.075 6.22125 15.9962 6.30875C15.9087 6.3875 15.8125 6.44875 15.7075 6.4925C15.6025 6.53625 15.4887 6.5625 15.375 6.5625C15.1387 6.5625 14.92 6.475 14.7538 6.30875C14.675 6.22125 14.6137 6.125 14.57 6.02C14.5262 5.915 14.5 5.80125 14.5 5.6875C14.5 5.57375 14.5262 5.46 14.57 5.355C14.6137 5.24125 14.675 5.15375 14.7538 5.06625C14.955 4.865 15.2613 4.76875 15.5413 4.83C15.6025 4.83875 15.655 4.85625 15.7075 4.8825C15.76 4.9 15.8125 4.92625 15.865 4.96125C15.9087 4.9875 15.9525 5.03125 15.9962 5.06625C16.075 5.15375 16.1363 5.24125 16.18 5.355C16.2238 5.46 16.25 5.57375 16.25 5.6875C16.25 5.80125 16.2238 5.915 16.18 6.02Z" fill="#E5E5E5"/>
</svg>
