<svg width="33" height="33" viewBox="0 0 33 33" fill="none" xmlns="http://www.w3.org/2000/svg">
<path d="M0.5 -0.00286865V32.9971H32.5V-0.00286865H0.5ZM17.9143 25.7342C17.9143 28.9458 16.0857 30.4116 13.4214 30.4116C11.0143 30.4116 9.62143 29.1299 8.90714 27.5757L11.3571 26.0509C11.8286 26.9128 12.2571 27.642 13.2929 27.642C14.2786 27.642 14.9071 27.2442 14.9071 25.69V15.1491H17.9143V25.7342ZM25.0286 30.4116C22.2357 30.4116 20.4286 29.0416 19.55 27.2442L22 25.7857C22.6429 26.8686 23.4857 27.6715 24.9643 27.6715C26.2071 27.6715 27.0071 27.0306 27.0071 26.1393C27.0071 25.0786 26.1929 24.7029 24.8143 24.0768L24.0643 23.7453C21.8929 22.7951 20.4571 21.5945 20.4571 19.0679C20.4571 16.7402 22.1786 14.9724 24.8571 14.9724C26.7714 14.9724 28.1429 15.6574 29.1286 17.4547L26.7857 19.0016C26.2714 18.0514 25.7143 17.6757 24.85 17.6757C23.9714 17.6757 23.4143 18.2503 23.4143 19.0016C23.4143 19.9297 23.9714 20.3054 25.2643 20.8873L26.0143 21.2188C28.5714 22.3458 30.0071 23.5023 30.0071 26.0951C30.0071 28.8795 27.8786 30.4116 25.0286 30.4116Z" fill="#444547"/>
</svg>
