<svg width="77" height="53" viewBox="0 0 77 53" fill="none" xmlns="http://www.w3.org/2000/svg">
<path d="M23.7639 42.9856H21.7064C21.6336 39.4518 21.4332 36.1297 21.1056 33.0167H21.0873L17.9547 42.9856H16.3882L13.2743 33.0167H13.2564C13.0254 36.0055 12.8798 39.3284 12.8194 42.9856H10.944C11.0648 38.5384 11.3686 34.3691 11.8541 30.4773H14.4042L17.3722 39.6683H17.3905L20.3768 30.4773H22.8168C23.3512 35.0358 23.6669 39.2055 23.7639 42.9856ZM32.6871 33.757C31.8493 38.3826 30.744 41.7436 29.3723 43.8416C28.3036 45.4566 27.1327 46.2649 25.8576 46.2649C25.5177 46.2649 25.0982 46.1605 24.6012 45.9534V44.838C24.8442 44.8736 25.1292 44.8938 25.4569 44.8938C26.0524 44.8938 26.5311 44.7272 26.8961 44.393C27.3327 43.986 27.551 43.5285 27.551 43.0224C27.551 42.6753 27.3808 41.9657 27.0413 40.8912L24.7833 33.7566H26.8047L28.4253 39.0926C28.7895 40.3042 28.9413 41.1501 28.8805 41.632C29.7667 39.2237 30.3858 36.5977 30.7385 33.7562H32.6871V33.757Z" fill="#444547"/>
<path d="M60.0751 42.9856H54.2305V30.4774H56.1966V41.4459H60.0751V42.9856ZM52.7005 43.2878L50.4406 42.1531C50.641 41.9856 50.8327 41.8043 51.0052 41.5944C51.9658 40.4463 52.4449 38.7484 52.4449 36.4995C52.4449 32.3613 50.849 30.2913 47.6559 30.2913C46.0902 30.2913 44.8688 30.8164 43.9953 31.867C43.0355 33.0159 42.5564 34.7077 42.5564 36.9445C42.5564 39.1432 42.981 40.7562 43.8307 41.7793C44.608 42.7061 45.7797 43.1701 47.3466 43.1701C47.931 43.1701 48.4674 43.0973 48.956 42.9504L51.8982 44.6932L52.7005 43.2878ZM45.3797 40.4827C44.8819 39.6679 44.633 38.3596 44.633 36.5557C44.633 33.4063 45.5733 31.8298 47.4559 31.8298C48.44 31.8298 49.1612 32.2068 49.6224 32.9593C50.1194 33.7752 50.3695 35.0718 50.3695 36.8506C50.3695 40.0259 49.4284 41.6138 47.547 41.6138C46.5625 41.6142 45.8413 41.2384 45.3797 40.4827ZM41.6996 39.5186C41.6996 40.5794 41.3171 41.4496 40.5529 42.1312C39.788 42.8101 38.7622 43.1503 37.4768 43.1503C36.2744 43.1503 35.1087 42.7595 33.9803 41.9819L34.5087 40.9079C35.4797 41.4026 36.3587 41.6486 37.148 41.6486C37.8887 41.6486 38.4676 41.4815 38.8874 41.1502C39.3069 40.8176 39.557 40.3512 39.557 39.7614C39.557 39.0182 39.0476 38.3831 38.1133 37.8511C37.2517 37.3697 35.5286 36.3631 35.5286 36.3631C34.5946 35.6706 34.1271 34.927 34.1271 33.702C34.1271 32.6882 34.4757 31.8698 35.1735 31.2472C35.8721 30.6222 36.7734 30.3107 37.8783 30.3107C39.0194 30.3107 40.0567 30.6218 40.9911 31.2375L40.5171 32.312C39.718 31.9665 38.9292 31.7938 38.1511 31.7938C37.5209 31.7938 37.0342 31.9479 36.6959 32.2574C36.3548 32.5656 36.1444 32.9601 36.1444 33.4439C36.1444 34.1834 36.6645 34.8267 37.6243 35.3692C38.4974 35.8514 40.2635 36.8753 40.2635 36.8753C41.2213 37.5667 41.6996 38.3034 41.6996 39.5186Z" fill="#444547"/>
<path d="M62.5433 26.2878C61.3545 26.257 60.4341 26.3788 59.6616 26.7114C59.4385 26.802 59.0839 26.802 59.0529 27.0888C59.1733 27.2102 59.1872 27.406 59.2918 27.5735C59.4699 27.8757 59.7805 28.2822 60.0639 28.4942C60.3752 28.7369 60.6878 28.9772 61.0154 29.1888C61.5931 29.5525 62.2479 29.7641 62.8109 30.1266C63.1389 30.3373 63.4649 30.61 63.7933 30.837C63.9548 30.9579 64.0581 31.1541 64.2677 31.2298V31.1837C64.1627 31.0477 64.1329 30.8511 64.0299 30.6998L63.5838 30.2621C63.1528 29.6731 62.6173 29.1589 62.0396 28.7365C61.564 28.4032 60.5239 27.9501 60.3311 27.3926L60.3009 27.3619C60.6277 27.3307 61.0154 27.2102 61.3259 27.1175C61.8312 26.982 62.292 27.0127 62.8105 26.8772C63.049 26.8165 63.2856 26.7405 63.525 26.6656V26.5293C63.2562 26.257 63.0646 25.8954 62.7819 25.6381C62.0257 24.9734 61.1923 24.3233 60.3311 23.7792C59.8699 23.4762 59.2767 23.2812 58.7857 23.0235C58.6088 22.9325 58.3106 22.8875 58.2064 22.7362C57.94 22.4037 57.7901 21.966 57.5969 21.5724C57.1675 20.7418 56.7504 19.8203 56.3798 18.942C56.1119 18.3529 55.9489 17.7647 55.622 17.2198C54.0913 14.6509 52.429 13.095 49.8741 11.5678C49.325 11.2499 48.6717 11.1143 47.974 10.9477L46.8595 10.8878C46.6218 10.7818 46.3836 10.4942 46.1761 10.3582C45.3284 9.81451 43.146 8.63606 42.5226 10.192C42.121 11.1754 43.1166 12.1423 43.4585 12.6411C43.711 12.9874 44.0382 13.3814 44.2147 13.7747C44.3193 14.0315 44.3487 14.3042 44.4533 14.5757C44.6911 15.2407 44.9133 15.9807 45.2258 16.6012C45.3888 16.9176 45.5666 17.2501 45.7749 17.5366C45.8942 17.704 46.1017 17.7781 46.147 18.0512C45.9399 18.3521 45.9236 18.8064 45.8047 19.1843C45.2704 20.8919 45.4791 23.0073 46.2365 24.2622C46.4735 24.6401 47.0388 25.4718 47.7951 25.153C48.4646 24.8812 48.3163 24.0199 48.5087 23.2646C48.5529 23.0821 48.5238 22.9624 48.6129 22.8426V22.8722C48.82 23.2949 49.0292 23.7023 49.2212 24.1263C49.682 24.8662 50.4844 25.6373 51.1527 26.1498C51.5086 26.4233 51.7905 26.891 52.2362 27.0581V27.0127H52.2067C52.1165 26.8772 51.9845 26.8165 51.866 26.7114C51.598 26.4391 51.3014 26.1066 51.0935 25.8048C50.4708 24.958 49.9198 24.0207 49.4307 23.0534C49.1914 22.5841 48.985 22.0712 48.7922 21.6027C48.7024 21.4219 48.7024 21.1492 48.5533 21.0582C48.3298 21.3903 48.0042 21.6779 47.8412 22.0849C47.5585 22.7358 47.5291 23.5364 47.4241 24.369L47.3657 24.3981C46.8925 24.2772 46.7279 23.7792 46.5482 23.3564C46.1033 22.2827 46.0286 20.5594 46.4146 19.3206C46.518 19.0039 46.9653 18.0062 46.7868 17.7045C46.6973 17.4152 46.3999 17.2505 46.2369 17.0228C46.0453 16.7364 45.8353 16.3739 45.7017 16.0559C45.3455 15.21 45.1662 14.2727 44.7825 13.4271C44.6032 13.0331 44.2919 12.6253 44.0398 12.2624C43.7567 11.8547 43.4454 11.5674 43.2216 11.084C43.1476 10.9177 43.0438 10.6459 43.1627 10.465C43.1917 10.3437 43.2522 10.2984 43.3707 10.268C43.5631 10.1026 44.113 10.3129 44.3058 10.4039C44.8565 10.6305 45.3169 10.8421 45.7765 11.1592C45.9844 11.3109 46.2075 11.5982 46.4743 11.6738H46.7868C47.2611 11.779 47.7959 11.703 48.2423 11.8397C49.0292 12.097 49.7421 12.4744 50.3814 12.8818C52.3268 14.1371 53.9311 15.9208 55.0141 18.0512C55.1918 18.3983 55.2674 18.7162 55.4296 19.0783C55.7425 19.8194 56.1294 20.5751 56.4399 21.3005C56.752 22.0105 57.0494 22.7354 57.4951 23.3253C57.7173 23.6424 58.6103 23.8087 59.0107 23.975C59.3069 24.1105 59.7681 24.2311 60.0353 24.3973C60.5406 24.7141 61.044 25.0778 61.5191 25.4261C61.7557 25.6073 62.4992 25.9852 62.5433 26.2878ZM47.3927 13.1545C47.1876 13.1523 46.9832 13.1779 46.7848 13.2305V13.2609H46.8134C46.9331 13.5024 47.141 13.6699 47.2893 13.8806C47.409 14.123 47.5128 14.3633 47.6301 14.6052L47.6587 14.5753C47.8682 14.4244 47.9724 14.1824 47.9724 13.8196C47.8821 13.7128 47.8682 13.6084 47.7931 13.5024C47.7056 13.3511 47.5128 13.2758 47.3927 13.1545Z" fill="#444547"/>
<path d="M63.958 42.9835H64.2657V41.4511H63.8041L63.4276 42.4968L63.0185 41.4511H62.574V42.9835H62.8646V41.8176H62.8809L63.3095 42.9835H63.531L63.958 41.8176V42.9835ZM61.479 42.9835H61.8046V41.7108H62.2309V41.4507H61.0349V41.7108H61.4782L61.479 42.9835Z" fill="#444547"/>
</svg>
