<svg width="54" height="29" viewBox="0 0 54 29" fill="none" xmlns="http://www.w3.org/2000/svg">
<path d="M27 1.44455C41.1941 1.44455 52.1088 7.66499 52.1088 14.4971C52.1088 21.3293 41.1858 27.5497 27 27.5497C12.8059 27.5497 1.89125 21.3293 1.89125 14.4971C1.89125 7.66499 12.8142 1.44455 27 1.44455ZM27 -0.00286865C12.367 -0.00286865 0.5 6.48465 0.5 14.4971C0.5 22.5096 12.367 28.9971 27 28.9971C41.633 28.9971 53.5 22.5096 53.5 14.4971C53.5 6.48465 41.633 -0.00286865 27 -0.00286865ZM18.5697 13.334C17.9155 16.8233 15.605 16.4615 12.7645 16.4615L13.8991 10.3789C17.0459 10.3789 19.1825 10.0257 18.5697 13.334ZM8.56594 22.6216H11.6052L12.3256 18.7618C15.7292 18.7618 17.8409 19.0203 19.7953 17.1163C21.9567 15.0485 22.5198 11.3697 20.9795 9.52595C20.1763 8.56101 18.8844 8.08715 17.1288 8.08715H11.2739L8.56594 22.6216ZM23.9442 4.21876H26.9669L26.2464 8.07854C28.855 8.07854 31.2731 7.88038 32.4408 9.0004C33.6664 10.1721 33.0784 11.6712 31.7534 18.7446H28.6894C29.9647 11.9038 30.2048 11.3352 29.7411 10.8183C29.2939 10.3186 28.2753 10.422 25.8158 10.422L24.2589 18.7446H21.2362L23.9442 4.21876ZM42.3203 13.334C41.6578 16.875 39.2811 16.4615 36.5152 16.4615L37.6497 10.3789C40.8131 10.3789 42.9331 10.0257 42.3203 13.334ZM32.3166 22.6216H35.3641L36.0845 18.7618C39.662 18.7618 41.6413 18.9772 43.5542 17.1163C45.7156 15.0485 46.2788 11.3697 44.7384 9.52595C43.9352 8.56101 42.6433 8.08715 40.8877 8.08715H35.0328L32.3166 22.6216Z" fill="#444547"/>
</svg>
