<svg width="122" height="31" viewBox="0 0 122 31" fill="none" xmlns="http://www.w3.org/2000/svg">
<path d="M20.9851 11.4534C20.7214 11.361 20.4578 11.2737 20.1941 11.1916C20.238 11.0017 20.2771 10.8117 20.3162 10.6218C20.9167 7.56211 20.5212 5.10309 19.1882 4.29198C17.9041 3.51679 15.8093 4.32278 13.6902 6.2633C13.4802 6.45324 13.2751 6.65346 13.0798 6.85367C12.948 6.72019 12.8113 6.58672 12.6746 6.45838C10.4529 4.38438 8.22632 3.51166 6.89331 4.32791C5.61401 5.10823 5.23315 7.42351 5.77026 10.3189C5.82397 10.6064 5.88257 10.8887 5.95093 11.1762C5.63843 11.2686 5.33081 11.3713 5.04272 11.4791C2.4353 12.4288 0.565186 13.9278 0.565186 15.4782C0.565186 17.0799 2.55737 18.6867 5.26733 19.6621C5.48706 19.7391 5.70679 19.8161 5.9314 19.8829C5.85815 20.1909 5.79468 20.4938 5.73608 20.8069C5.22339 23.6561 5.62378 25.9149 6.90308 26.6901C8.22144 27.491 10.4382 26.6696 12.5964 24.6829C12.7673 24.5237 12.9382 24.3594 13.1091 24.1849C13.324 24.4056 13.5486 24.6161 13.7732 24.8215C15.863 26.7106 17.9285 27.4756 19.2029 26.7004C20.5212 25.8995 20.9509 23.4713 20.3943 20.5143C20.3503 20.2884 20.3015 20.0574 20.2478 19.8213C20.4041 19.7751 20.5554 19.7237 20.7068 19.6724C23.5242 18.6919 25.5652 17.1056 25.5652 15.4782C25.5652 13.9227 23.6414 12.4134 20.9851 11.4534ZM14.3787 7.09495C16.1951 5.43165 17.8894 4.77967 18.6609 5.24684C19.4861 5.7448 19.8035 7.75719 19.2859 10.401C19.2517 10.5756 19.2175 10.745 19.1736 10.9144C18.0896 10.6577 16.991 10.4729 15.8875 10.3702C15.2527 9.41536 14.5593 8.50157 13.8074 7.64425C13.9978 7.45431 14.1833 7.27463 14.3787 7.09495ZM8.72925 18.1426C8.97827 18.5892 9.23218 19.0358 9.50073 19.4722C8.73901 19.3849 7.98218 19.2566 7.23511 19.0872C7.44995 18.3479 7.71851 17.583 8.03101 16.8027C8.25561 17.2545 8.48511 17.7011 8.72925 18.1426ZM7.24976 11.9668C7.95288 11.8025 8.69995 11.669 9.47632 11.5664C9.21753 11.9925 8.96362 12.4288 8.72437 12.8703C8.48511 13.3067 8.25073 13.7533 8.03101 14.2051C7.72339 13.4401 7.4646 12.6906 7.24976 11.9668ZM8.58765 15.5039C8.90991 14.7954 9.26147 14.1024 9.63257 13.4196C10.0037 12.7368 10.4041 12.0746 10.824 11.4226C11.5564 11.3662 12.3035 11.3353 13.0652 11.3353C13.8269 11.3353 14.5789 11.3662 15.3064 11.4226C15.7214 12.0695 16.1169 12.7317 16.4929 13.4093C16.8689 14.087 17.2205 14.78 17.5525 15.4833C17.2253 16.1918 16.8738 16.89 16.4978 17.5779C16.1267 18.2606 15.7312 18.9229 15.3162 19.58C14.5886 19.6365 13.8318 19.6621 13.0652 19.6621C12.2986 19.6621 11.5564 19.6365 10.8386 19.5903C10.4138 18.9383 10.0134 18.2709 9.63745 17.5881C9.26147 16.9054 8.91479 16.2123 8.58765 15.5039ZM17.406 18.1323C17.655 17.6805 17.8894 17.2237 18.1189 16.7616C18.4314 17.506 18.7048 18.2606 18.9441 19.0358C18.1873 19.2155 17.4207 19.3541 16.6492 19.4465C16.9128 19.0153 17.1619 18.5738 17.406 18.1323ZM18.1091 14.2051C17.8796 13.7533 17.6453 13.3015 17.4011 12.86C17.1619 12.4237 16.9128 11.9925 16.6541 11.5664C17.4402 11.669 18.1921 11.8076 18.8953 11.9771C18.6707 12.7368 18.407 13.4761 18.1091 14.2051ZM13.075 8.4297C13.5876 9.01494 14.071 9.63098 14.5203 10.2676C13.5535 10.2213 12.5818 10.2213 11.615 10.2676C12.0935 9.60531 12.5867 8.98927 13.075 8.4297ZM7.41089 5.28277C8.2312 4.77967 10.0525 5.49839 11.9714 7.2849C12.0935 7.39784 12.2156 7.52104 12.3425 7.64425C11.5857 8.50157 10.8875 9.41536 10.2478 10.3702C9.14429 10.4729 8.05054 10.6526 6.96655 10.9041C6.90308 10.6423 6.84937 10.3754 6.79565 10.1084C6.33667 7.62372 6.6394 5.74993 7.41089 5.28277ZM6.2146 18.8151C6.00952 18.7535 5.80933 18.6867 5.60913 18.6149C4.56909 18.2709 3.38745 17.7268 2.53296 17.0132C2.03979 16.6538 1.70776 16.0994 1.61499 15.4782C1.61499 14.5388 3.15796 13.3375 5.38452 12.5212C5.66284 12.4186 5.94604 12.3261 6.22925 12.2389C6.56128 13.3529 6.96167 14.4463 7.42554 15.5039C6.95679 16.5768 6.55151 17.6857 6.2146 18.8151ZM11.908 23.8461C11.1023 24.6212 10.1697 25.2373 9.15405 25.6582C8.61206 25.9303 7.98706 25.956 7.43042 25.725C6.65405 25.2527 6.33179 23.4405 6.77124 21.002C6.82495 20.7145 6.88354 20.4271 6.9519 20.1447C8.04565 20.3911 9.14917 20.5605 10.2673 20.6478C10.9119 21.6078 11.6199 22.5267 12.3767 23.3892C12.2205 23.5483 12.0642 23.7023 11.908 23.8461ZM13.1042 22.5986C12.6062 22.0339 12.1082 21.4076 11.6248 20.7351C12.0935 20.7556 12.5769 20.7659 13.0652 20.7659C13.5681 20.7659 14.0613 20.7556 14.5496 20.7299C14.1003 21.3819 13.6169 22.0031 13.1042 22.5986ZM19.4861 24.1387C19.4421 24.765 19.1492 25.3502 18.6804 25.7455C17.9041 26.2178 16.2488 25.6018 14.4617 23.9898C14.2566 23.805 14.0515 23.6048 13.8416 23.3994C14.5886 22.5319 15.2771 21.6129 15.9021 20.6478C17.0203 20.5503 18.1335 20.3706 19.2322 20.1088C19.281 20.3192 19.325 20.5297 19.364 20.7351C19.6033 21.8439 19.6423 22.999 19.4861 24.1387ZM20.3748 18.62C20.238 18.6662 20.1013 18.7124 19.9597 18.7535C19.6179 17.6343 19.198 16.5409 18.7146 15.4782C19.1833 14.4309 19.5789 13.3529 19.9109 12.2491C20.1648 12.3261 20.4089 12.4083 20.6433 12.4904C22.9187 13.3118 24.5154 14.5336 24.5154 15.4679C24.5154 16.4741 22.8113 17.773 20.3748 18.62ZM13.0652 17.85C14.3005 17.85 15.3015 16.7976 15.3015 15.4987C15.3015 14.1999 14.3005 13.1475 13.0652 13.1475C11.8298 13.1475 10.8289 14.1999 10.8289 15.4987C10.8289 16.7976 11.8298 17.85 13.0652 17.85Z" fill="#444547"/>
<path d="M34.7957 9.50195H41.405C41.9734 9.50195 42.489 9.64258 42.9519 9.92383C43.4207 10.1992 43.7927 10.5684 44.0681 11.0312C44.3494 11.4941 44.49 12.0098 44.49 12.5781V13.8262C44.49 14.3945 44.3523 14.9072 44.0769 15.3643C43.8074 15.8213 43.4382 16.1846 42.9695 16.4541C42.5007 16.7236 41.9763 16.8584 41.3962 16.8584L45.1228 22H42.864L39.1375 16.8584H37.7048V15.0127H41.405C41.7507 15.0127 42.0437 14.8955 42.2839 14.6611C42.5242 14.4209 42.6443 14.1338 42.6443 13.7998V12.5781C42.6443 12.2383 42.5242 11.9482 42.2839 11.708C42.0437 11.4678 41.7507 11.3477 41.405 11.3477H36.6501V22H34.7957V9.50195ZM46.7136 14.7754C46.7136 14.2539 46.9041 13.8115 47.2849 13.4482C47.6658 13.0791 48.1228 12.8945 48.656 12.8945H52.4529C52.9392 12.8945 53.3787 13.0146 53.7712 13.2549C54.1697 13.4893 54.4861 13.8086 54.7205 14.2129C54.9607 14.6113 55.0808 15.0537 55.0808 15.54V15.7949C55.0808 16.2754 54.9607 16.7148 54.7205 17.1133C54.4861 17.5059 54.1697 17.8223 53.7712 18.0625C53.3787 18.2969 52.9392 18.4141 52.4529 18.4141H49.6228V16.5684H52.4705C52.6814 16.5684 52.8601 16.4922 53.0066 16.3398C53.1589 16.1875 53.2351 16.0029 53.2351 15.7861V15.54C53.2351 15.3174 53.1589 15.1299 53.0066 14.9775C52.8601 14.8252 52.6814 14.749 52.4705 14.749H48.5681V19.4248C48.5681 19.624 48.6355 19.7939 48.7703 19.9346C48.905 20.0752 49.0691 20.1455 49.2625 20.1455H54.4392V22H49.2625C48.7937 22 48.366 21.8857 47.9792 21.6572C47.5925 21.4229 47.2849 21.1123 47.0564 20.7256C46.8279 20.333 46.7136 19.9023 46.7136 19.4336V14.7754ZM56.9265 16.1641C56.9265 15.5605 57.073 15.0127 57.366 14.5205C57.6648 14.0283 58.0632 13.6357 58.5613 13.3428C59.0593 13.0439 59.6101 12.8945 60.2136 12.8945H65.2937V22H63.4392V14.749H60.2136C59.821 14.749 59.4841 14.8896 59.2029 15.1709C58.9216 15.4463 58.781 15.7832 58.781 16.1816V18.6953C58.781 19.0938 58.9216 19.4365 59.2029 19.7236C59.4841 20.0049 59.821 20.1455 60.2136 20.1455H62.3845V22H60.2136C59.6101 22 59.0593 21.8535 58.5613 21.5605C58.0632 21.2617 57.6648 20.8633 57.366 20.3652C57.073 19.8672 56.9265 19.3164 56.9265 18.7129V16.1641ZM67.3152 16.1816C67.3152 15.5781 67.4675 15.0273 67.7722 14.5293C68.0769 14.0312 68.4841 13.6357 68.9939 13.3428C69.5037 13.0439 70.0691 12.8945 70.6902 12.8945H75.8142V14.749H70.6902C70.2742 14.749 69.9167 14.8926 69.6179 15.1797C69.3191 15.4609 69.1697 15.8037 69.1697 16.208V18.6777C69.1697 19.082 69.3162 19.4277 69.6091 19.7148C69.908 20.002 70.2683 20.1455 70.6902 20.1455H75.8142V22H70.6902C70.0691 22 69.5037 21.8506 68.9939 21.5518C68.4841 21.2529 68.0769 20.8545 67.7722 20.3564C67.4675 19.8525 67.3152 19.2988 67.3152 18.6953V16.1816ZM77.405 12.8945H78.5916V9.50195H80.446V12.8945H83.2498V14.749H80.446V19.416C80.446 19.6152 80.5222 19.7881 80.6746 19.9346C80.8328 20.0752 81.0203 20.1455 81.2371 20.1455H83.2498V22H81.2107C80.7302 22 80.2908 21.8857 79.8923 21.6572C79.4998 21.4229 79.1833 21.1123 78.9431 20.7256C78.7087 20.333 78.5916 19.8994 78.5916 19.4248V14.749H77.405V12.8945Z" fill="#444547"/>
</svg>
