<svg width="151" height="19" viewBox="0 0 151 19" fill="none" xmlns="http://www.w3.org/2000/svg">
<path fill-rule="evenodd" clip-rule="evenodd" d="M15.9063 0.536377C11.7805 0.536377 9.20197 2.52828 8.17054 6.51208C9.71768 4.52018 11.5227 3.77322 13.5855 4.27119C14.7625 4.55504 15.6037 5.38002 16.5349 6.29242C18.0516 7.77915 19.8074 9.49994 23.642 9.49994C27.7677 9.49994 30.3463 7.50803 31.3777 3.52423C29.8306 5.51613 28.0256 6.26309 25.9627 5.76512C24.7857 5.48127 23.9445 4.65629 23.0134 3.74389C21.4966 2.25716 19.7409 0.536377 15.9063 0.536377ZM8.17054 9.49994C4.04482 9.49994 1.46624 11.4918 0.434814 15.4756C1.98196 13.4837 3.78696 12.7368 5.84982 13.2348C7.0268 13.5192 7.86799 14.3436 8.79914 15.256C10.3159 16.7427 12.0716 18.4635 15.9063 18.4635C20.032 18.4635 22.6106 16.4716 23.642 12.4878C22.0948 14.4797 20.2898 15.2267 18.227 14.7287C17.05 14.4448 16.2088 13.6199 15.2777 12.7074C13.7609 11.2207 12.0052 9.49994 8.17054 9.49994Z" fill="#444547"/>
<path fill-rule="evenodd" clip-rule="evenodd" d="M46.8469 8.09019H44.1468V13.1363C44.1468 14.482 45.0613 14.461 46.8469 14.3769V16.4163C43.2323 16.8369 41.7951 15.8697 41.7951 13.1363V8.09019H39.7919V5.90352H41.7951V3.07945L44.1468 2.40663V5.90352H46.8469V8.09019ZM57.1394 5.90352H59.491V16.4163H57.1394V14.9025C56.3119 16.0169 55.0272 16.6897 53.3288 16.6897C50.3675 16.6897 47.9069 14.2717 47.9069 11.1599C47.9069 8.02711 50.3675 5.63019 53.3288 5.63019C55.0272 5.63019 56.3119 6.30301 57.1394 7.39634V5.90352ZM53.699 14.524C55.6587 14.524 57.1394 13.1153 57.1394 11.1599C57.1394 9.20455 55.6587 7.79583 53.699 7.79583C51.7393 7.79583 50.2586 9.20455 50.2586 11.1599C50.2586 13.1153 51.7393 14.524 53.699 14.524ZM63.4105 4.3266C62.583 4.3266 61.908 3.65378 61.908 2.87583C61.9088 2.49129 62.0673 2.1227 62.3489 1.85079C62.6305 1.57888 63.0122 1.42579 63.4105 1.42506C63.8087 1.42579 64.1904 1.57888 64.472 1.85079C64.7536 2.1227 64.9122 2.49129 64.9129 2.87583C64.9129 3.65378 64.2379 4.3266 63.4105 4.3266ZM62.2346 16.4163V5.90352H64.5863V16.4163H62.2346ZM67.3081 16.4163V1.06763H69.6598V16.4163H67.3081ZM84.9238 5.90352H87.4061L83.9875 16.4163H81.6794L79.4148 9.3307L77.1285 16.4163H74.8204L71.4018 5.90352H73.8841L75.9962 13.1574L78.2826 5.90352H80.5253L82.7899 13.1574L84.9238 5.90352ZM90.3239 4.3266C89.4965 4.3266 88.8215 3.65378 88.8215 2.87583C88.8222 2.49129 88.9808 2.1227 89.2624 1.85079C89.544 1.57888 89.9257 1.42579 90.3239 1.42506C90.7222 1.42579 91.1039 1.57888 91.3855 1.85079C91.6671 2.1227 91.8256 2.49129 91.8264 2.87583C91.8264 3.65378 91.1514 4.3266 90.3239 4.3266ZM89.1481 16.4163V5.90352H91.4998V16.4163H89.1481ZM99.9483 5.63019C102.387 5.63019 104.129 7.22814 104.129 9.96147V16.4163H101.777V10.1928C101.777 8.5948 100.819 7.75378 99.3386 7.75378C97.7926 7.75378 96.5732 8.63685 96.5732 10.7815V16.4163H94.2216V5.90352H96.5732V7.24916C97.2918 6.15583 98.4676 5.63019 99.9483 5.63019ZM115.278 1.6984H117.629V16.4163H115.278V14.9025C114.45 16.0169 113.166 16.6897 111.467 16.6897C108.506 16.6897 106.045 14.2717 106.045 11.1599C106.045 8.02711 108.506 5.63019 111.467 5.63019C113.166 5.63019 114.45 6.30301 115.278 7.39634V1.6984ZM111.837 14.524C113.797 14.524 115.278 13.1153 115.278 11.1599C115.278 9.20455 113.797 7.79583 111.837 7.79583C109.878 7.79583 108.397 9.20455 108.397 11.1599C108.397 13.1153 109.878 14.524 111.837 14.524ZM125.512 16.6897C122.224 16.6897 119.763 14.2717 119.763 11.1599C119.763 8.02711 122.224 5.63019 125.512 5.63019C127.646 5.63019 129.496 6.7025 130.367 8.34249L128.342 9.47788C127.863 8.48967 126.796 7.85891 125.49 7.85891C123.574 7.85891 122.115 9.26762 122.115 11.1599C122.115 13.0522 123.574 14.461 125.49 14.461C126.796 14.461 127.863 13.8092 128.386 12.842L130.411 13.9563C129.497 15.6174 127.646 16.6897 125.512 16.6897ZM134.287 8.80506C134.287 10.7184 140.144 9.56198 140.144 13.4517C140.144 15.5543 138.25 16.6897 135.898 16.6897C133.721 16.6897 132.153 15.7435 131.456 14.2297L133.481 13.0943C133.83 14.0404 134.701 14.6081 135.898 14.6081C136.943 14.6081 137.749 14.2717 137.749 13.4307C137.749 11.5594 131.892 12.6107 131.892 8.84711C131.892 6.8707 133.655 5.63019 135.876 5.63019C137.662 5.63019 139.143 6.42916 139.905 7.81685L137.923 8.88916C137.531 8.06916 136.769 7.6907 135.876 7.6907C135.027 7.6907 134.287 8.04814 134.287 8.80506ZM144.325 8.80506C144.325 10.7184 150.182 9.56198 150.182 13.4517C150.182 15.5543 148.288 16.6897 145.936 16.6897C143.759 16.6897 142.191 15.7435 141.494 14.2297L143.519 13.0943C143.868 14.0404 144.739 14.6081 145.936 14.6081C146.982 14.6081 147.787 14.2717 147.787 13.4307C147.787 11.5594 141.93 12.6107 141.93 8.84711C141.93 6.8707 143.694 5.63019 145.915 5.63019C147.7 5.63019 149.181 6.42916 149.943 7.81685L147.961 8.88916C147.569 8.06916 146.807 7.6907 145.915 7.6907C145.065 7.6907 144.325 8.04814 144.325 8.80506Z" fill="#444547"/>
</svg>
